Coordinates
version=1
nRows=11
nColumns=63
inDegrees=yes

Units are S.I. units (second, meters, Newtons, ...)
If the header above contains a line with 'inDegrees', this indicates whether rotational values are in degrees (yes) or radians (no).

endheader
time	pelvis_tilt	pelvis_list	pelvis_rotation	pelvis_tx	pelvis_ty	pelvis_tz	hip_flexion_r	hip_adduction_r	hip_rotation_r	knee_angle_r	knee_angle_r_beta	ankle_angle_r	subtalar_angle_r	mtp_angle_r	hip_flexion_l	hip_adduction_l	hip_rotation_l	knee_angle_l	knee_angle_l_beta	ankle_angle_l	subtalar_angle_l	mtp_angle_l	L5_S1_Flex_Ext	L5_S1_Lat_Bending	L5_S1_axial_rotation	L4_L5_Flex_Ext	L4_L5_Lat_Bending	L4_L5_axial_rotation	L3_L4_Flex_Ext	L3_L4_Lat_Bending	L3_L4_axial_rotation	L2_L3_Flex_Ext	L2_L3_Lat_Bending	L2_L3_axial_rotation	L1_L2_Flex_Ext	L1_L2_Lat_Bending	L1_L2_axial_rotation	L1_T12_Flex_Ext	L1_T12_Lat_Bending	L1_T12_axial_rotation	Abs_r3	Abs_r2	Abs_r1	Abs_t1	Abs_t2	neck_flexion	neck_bending	neck_rotation	arm_flex_r	arm_add_r	arm_rot_r	elbow_flex_r	pro_sup_r	wrist_flex_r	wrist_dev_r	arm_flex_l	arm_add_l	arm_rot_l	elbow_flex_l	pro_sup_l	wrist_flex_l	wrist_dev_l
2.644068	-5.705863	-2.223968	86.600456	0.247610	0.895229	0.459683	-5.372388	-4.314166	14.021536	4.850167	0.084651	35.518127	-9.548675	0.000000	2.214338	4.219262	11.575916	12.718998	0.221988	39.524299	-16.252150	0.000000	-0.264673	-0.538619	1.389420	-0.491525	-0.716364	1.476259	-0.434832	-1.309599	1.476259	-0.302495	-1.309599	1.215743	-0.245776	-1.098353	1.128904	-0.151234	-0.834322	1.042065	-1.890536	-6.092971	7.727539	0.000000	0.000000	15.004040	3.403738	28.784939	-2.207223	-25.030190	44.037432	32.378941	64.335769	-5.177215	-5.594175	47.021515	-29.160460	-2.676735	146.553219	88.076598	12.731199	19.611608
2.661017	-5.676385	-2.141117	86.777027	0.247600	0.895506	0.459241	-5.457825	-4.260147	13.785466	4.948808	0.086373	35.622781	-9.329655	0.000000	2.100355	4.180109	11.684481	12.691180	0.221503	39.588559	-16.203651	0.000000	-0.263850	-0.532587	1.331700	-0.489996	-0.708341	1.414931	-0.433479	-1.294932	1.414931	-0.301554	-1.294932	1.165237	-0.245011	-1.086052	1.082006	-0.150764	-0.824978	0.998775	-1.884655	-6.024733	7.406515	0.000000	0.000000	15.437098	3.444946	28.772373	-2.617230	-25.066128	42.647531	32.845593	65.857613	-4.996501	-5.603639	46.743185	-29.305005	-2.864868	146.599806	88.035891	12.895698	19.319214
2.677966	-5.666938	-2.033659	86.940560	0.247653	0.895886	0.458702	-5.577216	-4.230719	13.545408	5.031944	0.087824	35.703543	-9.122205	0.000000	1.929974	4.155772	11.824515	12.588897	0.219718	39.628969	-16.177505	0.000000	-0.263691	-0.531189	1.270305	-0.489701	-0.706481	1.349699	-0.433218	-1.291533	1.349699	-0.301373	-1.291533	1.111517	-0.244864	-1.083200	1.032123	-0.150673	-0.822811	0.952729	-1.883520	-6.008914	7.065057	0.000000	0.000000	15.855064	3.507217	28.704996	-2.994554	-25.076393	41.372000	33.316663	67.277111	-4.754311	-5.679958	46.490799	-29.499396	-3.088392	146.639468	88.010193	13.236221	19.372213
2.694915	-5.679971	-1.893895	87.074204	0.247809	0.896353	0.458066	-5.734008	-4.229228	13.280901	5.115641	0.089285	35.768662	-8.898623	0.000000	1.700663	4.150414	11.993430	12.430547	0.216954	39.643731	-16.184610	0.000000	-0.264529	-0.535911	1.201998	-0.491258	-0.712762	1.277123	-0.434595	-1.303015	1.277123	-0.302331	-1.303015	1.051749	-0.245642	-1.092831	0.976624	-0.151152	-0.830127	0.901499	-1.889508	-6.062337	6.685154	0.000000	0.000000	16.246250	3.633812	28.595837	-3.276246	-25.060023	40.412003	33.757830	68.416023	-4.477823	-5.855325	46.223638	-29.829179	-3.293742	146.693382	88.017540	13.349502	19.797243
2.711864	-5.713237	-1.719141	87.178167	0.248052	0.896882	0.457339	-5.930842	-4.252161	13.001402	5.207569	0.090889	35.829551	-8.666023	0.000000	1.414794	4.163940	12.199732	12.233888	0.213522	39.639564	-16.220079	0.000000	-0.265974	-0.546259	1.121314	-0.493941	-0.726525	1.191396	-0.436969	-1.328175	1.191396	-0.303982	-1.328175	0.981149	-0.246984	-1.113932	0.911067	-0.151978	-0.846155	0.840985	-1.899827	-6.179393	6.236410	0.000000	0.000000	16.593623	3.818484	28.453658	-3.405883	-25.026660	39.944566	34.157678	69.090480	-4.190754	-6.100832	45.844255	-30.343283	-3.517406	146.772220	88.065650	13.031604	20.573753
2.728814	-5.753805	-1.513352	87.251271	0.248352	0.897448	0.456480	-6.179147	-4.288792	12.755165	5.281611	0.092182	35.871775	-8.465072	0.000000	1.054925	4.182104	12.446255	11.967648	0.208875	39.614593	-16.269249	0.000000	-0.266039	-0.559109	1.022152	-0.494061	-0.743614	1.086037	-0.437076	-1.359417	1.086037	-0.304056	-1.359417	0.894383	-0.247044	-1.140134	0.830499	-0.152015	-0.866059	0.766614	-1.900291	-6.324748	5.684904	0.000000	0.000000	16.856277	4.046419	28.328023	-3.348810	-24.968484	40.073416	34.464058	69.282433	-3.920355	-6.458628	45.158208	-31.026941	-3.864132	146.873585	88.109648	12.124021	21.502166
2.745763	-5.787634	-1.286347	87.267075	0.248694	0.898021	0.455591	-6.437871	-4.326243	12.514361	5.372063	0.093760	35.950892	-8.210637	0.000000	0.662333	4.194813	12.671770	11.690450	0.204037	39.598825	-16.308563	0.000000	-0.267526	-0.570455	0.906019	-0.496823	-0.758705	0.962645	-0.439519	-1.387004	0.962645	-0.305756	-1.387004	0.792767	-0.248425	-1.163272	0.736140	-0.152864	-0.883635	0.679514	-1.910912	-6.453099	5.039005	0.000000	0.000000	17.102199	4.292757	28.283519	-3.077122	-24.898532	40.756165	34.699041	69.021534	-3.697862	-6.821540	44.016114	-31.813530	-4.471122	146.985298	88.062994	10.758215	22.399708
2.762712	-5.791722	-1.052945	87.216073	0.249046	0.898575	0.454654	-6.704652	-4.343865	12.367070	5.445934	0.095049	36.032333	-7.980003	0.000000	0.232204	4.178928	12.869066	11.373082	0.198498	39.590701	-16.343507	0.000000	-0.267257	-0.576221	0.777585	-0.496322	-0.766374	0.826184	-0.439076	-1.401023	0.826184	-0.305448	-1.401023	0.680387	-0.248175	-1.175029	0.631788	-0.152710	-0.892566	0.583189	-1.908988	-6.518324	4.324695	0.000000	0.000000	17.305236	4.500942	28.258716	-2.554721	-24.824957	42.157212	34.803637	68.346834	-3.542867	-7.253743	42.332338	-32.617745	-5.316276	147.061433	87.860255	8.866064	23.179778
2.779661	-5.763638	-0.830913	87.122830	0.249333	0.899079	0.453735	-6.940865	-4.338254	12.189437	5.533316	0.096575	36.173910	-7.631668	0.000000	-0.187039	4.138671	13.031620	11.068427	0.193180	39.601321	-16.384505	0.000000	-0.266334	-0.574150	0.638226	-0.494609	-0.763619	0.678115	-0.437561	-1.395988	0.678115	-0.304393	-1.395988	0.558448	-0.247318	-1.170806	0.518559	-0.152183	-0.889358	0.478670	-1.902399	-6.494896	3.549622	0.000000	0.000000	17.504739	4.647470	28.285460	-1.824376	-24.737892	44.093717	34.793534	67.564913	-3.562805	-7.702364	40.072900	-33.407933	-6.382396	147.015970	87.377354	6.581341	23.585273
2.796610	-5.676901	-0.633001	86.965069	0.249551	0.899531	0.452900	-7.103887	-4.293151	11.728122	5.666611	0.098901	36.464121	-6.784489	0.000000	-0.570466	4.039274	13.048406	10.791335	0.188344	39.662176	-16.346140	0.000000	-0.263949	-0.560093	0.501169	-0.490180	-0.744924	0.532492	-0.433642	-1.361810	0.532492	-0.301667	-1.361810	0.438523	-0.245103	-1.142142	0.407200	-0.150820	-0.867584	0.375877	-1.885361	-6.335885	2.787354	0.000000	0.000000	17.665325	4.720610	28.361315	-0.828461	-24.647676	46.792507	34.613751	66.743322	-3.850821	-8.193554	37.277057	-34.102457	-7.613606	146.769218	86.485815	4.121475	23.697480
2.813559	-5.542764	-0.462145	86.790251	0.249643	0.899923	0.452132	-7.239517	-4.194785	11.601513	5.767314	0.100659	36.694629	-6.331982	0.000000	-0.919618	3.902083	13.043979	10.529271	0.183770	39.739316	-16.334489	0.000000	-0.261248	-0.535027	0.376246	-0.485164	-0.711586	0.399762	-0.429205	-1.300865	0.399762	-0.298581	-1.300865	0.329216	-0.242595	-1.091027	0.305700	-0.149277	-0.828757	0.282185	-1.866070	-6.052333	2.092569	0.000000	0.000000	17.801827	4.682345	28.422052	0.274859	-24.529652	49.671957	34.329374	66.384546	-4.383723	-8.548267	34.075641	-34.687366	-8.850655	146.193617	85.475154	1.607733	23.436876
